# xmcd CD database file
#
# Track frame offsets:
#	150
#	14109
#	34582
#	55134
#	67584
#	90318
#	110122
#	128872
#	142782
#	152982
#	166182
#	192225
#	218637
#
# Disc length: 3105 seconds
#
# Revision: 0
# Processed by: cddbd v1.5.1PL2 Copyright (c) Steve Scherf et al.
# Submitted via: CDex 1.60beta1-cs1
#
DISCID=a80c1f0d
DTITLE=LUPIN THE THIRD - Cafe Relaxin' Lupin
DYEAR=2005
DGENRE=Jazz
TTITLE0=molchkaffee
TTITLE1=Theme From Lupin Ⅲ('99 Version)
TTITLE2=Just Fall In Love
TTITLE3=REMEMBER
TTITLE4=Saudades Do Rio(More Lupintic Version)
TTITLE5=Across The Wind
TTITLE6=Isn't It More Lupintic?
TTITLE7=A Day of The Town
TTITLE8=Cool Wave
TTITLE9=recherche
TTITLE10=ANGEL DANCE (More Lupintic version)
TTITLE11=Lonesome City Breeze
TTITLE12=penisola
EXTD=YEAR: 2005
EXTT0=
EXTT1=
EXTT2=
EXTT3=
EXTT4=
EXTT5=
EXTT6=
EXTT7=
EXTT8=
EXTT9=
EXTT10=
EXTT11=
EXTT12=
PLAYORDER=
